<?xml version="1.0" encoding="utf-8"?>
<!-- Generator: Adobe Illustrator 24.0.1, SVG Export Plug-In . SVG Version: 6.00 Build 0)  -->
<svg version="1.1" id="图层_1" xmlns="http://www.w3.org/2000/svg" xmlns:xlink="http://www.w3.org/1999/xlink" x="0px" y="0px"
	 viewBox="0 0 400 400" style="enable-background:new 0 0 400 400;" xml:space="preserve">
<g>
	<g>
		<g>
			<path d="M205.77,222.33h-12.19v-1.15c0-0.48-0.39-0.87-0.87-0.87h-22.14v-42.08h2.3v39.78h19.84c1.34,0,2.49,0.84,2.95,2.02h8.02
				c0.46-1.18,1.61-2.02,2.95-2.02h19.84v-39.78h2.3v42.08h-22.14c-0.48,0-0.87,0.39-0.87,0.87V222.33z"/>
		</g>
		<g>
			<path d="M201.81,217.9h-4.27l-0.35-0.42c-1.11-1.34-2.74-2.11-4.48-2.11h-17.2v-37.13h17.2c2.95,0,5.54,1.59,6.96,3.95
				c1.42-2.37,4.01-3.95,6.96-3.95h17.2v37.13h-17.2c-1.74,0-3.37,0.77-4.48,2.11L201.81,217.9z M198.6,215.6h2.15
				c1.53-1.61,3.65-2.53,5.89-2.53h14.9v-32.53h-14.9c-3.21,0-5.81,2.61-5.81,5.81h-2.3c0-3.21-2.61-5.81-5.81-5.81h-14.9v32.53
				h14.9C194.95,213.07,197.07,213.98,198.6,215.6z"/>
		</g>
		<g>
			<rect x="198.52" y="184.06" width="2.3" height="33.84"/>
		</g>
	</g>
	<g>
		<rect x="181.07" y="187.29" width="7.72" height="2.3"/>
	</g>
	<g>
		<rect x="181.07" y="191.5" width="14.33" height="2.3"/>
	</g>
	<g>
		<rect x="181.07" y="195.7" width="14.33" height="2.3"/>
	</g>
	<g>
		<rect x="181.07" y="199.91" width="14.33" height="2.3"/>
	</g>
	<g>
		<path d="M218.37,202.21h-14.3v-14.91h14.3V202.21z M206.37,199.91h9.7v-10.31h-9.7V199.91z"/>
	</g>
</g>
</svg>
